<svg width="998" height="297" viewBox="0 0 998 297" fill="none" xmlns="http://www.w3.org/2000/svg">
<path d="M94 17L181 155.155L94 184L7 155.155L94 17Z" fill="black"/>
<path d="M93.703 281L186 170L93.703 201.874L9 170L93.703 281Z" fill="black"/>
<path d="M94 17L89.9722 122.141L7 156L94 17Z" fill="#565656"/>
<path d="M93.4581 17L181 156L89 121.835L93.4581 17Z" fill="#333333"/>
<path d="M89.5899 121L94 184L7 154.978L89.5899 121Z" fill="#3C3C3C"/>
<path d="M89 121L181 155.3L93.821 184L89 121Z" fill="#212121"/>
<path d="M9 170L94 202.019V281L9 170Z" fill="#595959"/>
<path d="M186 170L94 281V201.663L186 170Z" fill="#424242"/>
<path d="M45.1401 131.477L61.35 90.7224L87.0624 154.444L45.1401 131.477Z" fill="white" stroke="#EA7E00" stroke-width="5"/>
<path d="M131.936 127.295L117.656 90.7694L92.3296 153.48L131.936 127.295Z" fill="white" stroke="#EA7E00" stroke-width="5"/>
<path d="M74.3278 113.291L65.5679 92.2643L82.884 107.827L74.3278 113.291Z" fill="white" stroke="#EA7E00" stroke-width="5"/>
<path d="M103.904 114.305L113.053 91.2195L93.2656 107.735L103.904 114.305Z" fill="white" stroke="#EA7E00" stroke-width="5"/>
<line x1="82" y1="107.5" x2="93" y2="107.5" stroke="#EA7E00" stroke-width="5"/>
<path d="M192 216V122.909H217.273V160.545H218.545L246.545 122.909H276L244.545 164.364L276.727 216H246.545L225.636 181.091L217.273 192V216H192ZM283.5 216V122.909H323.682C330.591 122.909 336.636 124.167 341.818 126.682C347 129.197 351.03 132.818 353.909 137.545C356.788 142.273 358.227 147.939 358.227 154.545C358.227 161.212 356.742 166.833 353.773 171.409C350.833 175.985 346.697 179.439 341.364 181.773C336.061 184.106 329.864 185.273 322.773 185.273H298.773V165.636H317.682C320.652 165.636 323.182 165.273 325.273 164.545C327.394 163.788 329.015 162.591 330.136 160.955C331.288 159.318 331.864 157.182 331.864 154.545C331.864 151.879 331.288 149.712 330.136 148.045C329.015 146.348 327.394 145.106 325.273 144.318C323.182 143.5 320.652 143.091 317.682 143.091H308.773V216H283.5ZM338.045 173.273L361.318 216H333.864L311.136 173.273H338.045ZM360.807 122.909H388.989L407.17 160.727H407.898L426.08 122.909H454.261L420.08 186.727V216H394.989V186.727L360.807 122.909ZM462.5 216V122.909H502.682C509.591 122.909 515.636 124.273 520.818 127C526 129.727 530.03 133.561 532.909 138.5C535.788 143.439 537.227 149.212 537.227 155.818C537.227 162.485 535.742 168.258 532.773 173.136C529.833 178.015 525.697 181.773 520.364 184.409C515.061 187.045 508.864 188.364 501.773 188.364H477.773V168.727H496.682C499.652 168.727 502.182 168.212 504.273 167.182C506.394 166.121 508.015 164.621 509.136 162.682C510.288 160.742 510.864 158.455 510.864 155.818C510.864 153.152 510.288 150.879 509.136 149C508.015 147.091 506.394 145.636 504.273 144.636C502.182 143.606 499.652 143.091 496.682 143.091H487.773V216H462.5ZM633.409 157.818H607.773C607.591 155.697 607.106 153.773 606.318 152.045C605.561 150.318 604.5 148.833 603.136 147.591C601.803 146.318 600.182 145.348 598.273 144.682C596.364 143.985 594.197 143.636 591.773 143.636C587.53 143.636 583.939 144.667 581 146.727C578.091 148.788 575.879 151.742 574.364 155.591C572.879 159.439 572.136 164.061 572.136 169.455C572.136 175.152 572.894 179.924 574.409 183.773C575.955 187.591 578.182 190.47 581.091 192.409C584 194.318 587.5 195.273 591.591 195.273C593.924 195.273 596.015 194.985 597.864 194.409C599.712 193.803 601.318 192.939 602.682 191.818C604.045 190.697 605.152 189.348 606 187.773C606.879 186.167 607.47 184.364 607.773 182.364L633.409 182.545C633.106 186.485 632 190.5 630.091 194.591C628.182 198.652 625.47 202.409 621.955 205.864C618.47 209.288 614.152 212.045 609 214.136C603.848 216.227 597.864 217.273 591.045 217.273C582.5 217.273 574.833 215.439 568.045 211.773C561.288 208.106 555.939 202.712 552 195.591C548.091 188.47 546.136 179.758 546.136 169.455C546.136 159.091 548.136 150.364 552.136 143.273C556.136 136.152 561.53 130.773 568.318 127.136C575.106 123.47 582.682 121.636 591.045 121.636C596.924 121.636 602.333 122.439 607.273 124.045C612.212 125.652 616.545 128 620.273 131.091C624 134.152 627 137.924 629.273 142.409C631.545 146.894 632.924 152.03 633.409 157.818ZM644.875 216V122.909H670.148V159.273H703.602V122.909H728.875V216H703.602V179.636H670.148V216H644.875ZM765.057 216H737.784L768.511 122.909H803.057L833.784 216H806.511L786.148 148.545H785.42L765.057 216ZM759.966 179.273H811.239V198.182H759.966V179.273ZM868.023 122.909V216H842.75V122.909H868.023ZM960.545 122.909V216H939.455L905.818 167.091H905.273V216H880V122.909H901.455L934.545 171.636H935.273V122.909H960.545Z" fill="url(#paint0_linear_201_2)"/>
<defs>
<linearGradient id="paint0_linear_201_2" x1="143.5" y1="170" x2="1008" y2="170" gradientUnits="userSpaceOnUse">
<stop/>
<stop offset="0.34375" stop-color="#414141"/>
<stop offset="0.630627" stop-color="#4F4F4F"/>
<stop offset="0.9998" stop-color="#6B6B6B"/>
</linearGradient>
</defs>
</svg>
